<?xml version="1.0" encoding="UTF-8"?>
<!DOCTYPE svg PUBLIC "-//W3C//DTD SVG 1.1//EN" "http://www.w3.org/Graphics/SVG/1.1/DTD/svg11.dtd">
<!-- Creator: CorelDRAW -->
<svg xmlns="http://www.w3.org/2000/svg" xml:space="preserve" width="192.446mm" height="246.843mm" version="1.1" style="shape-rendering:geometricPrecision; text-rendering:geometricPrecision; image-rendering:optimizeQuality; fill-rule:evenodd; clip-rule:evenodd"
viewBox="0 0 7353.92 9432.58"
 xmlns:xlink="http://www.w3.org/1999/xlink"
 xmlns:xodm="http://www.corel.com/coreldraw/odm/2003">
 <defs>
  <style type="text/css">
   <![CDATA[
    .fil5 {fill:#154A87;fill-rule:nonzero}
    .fil6 {fill:#2474B6;fill-rule:nonzero}
    .fil10 {fill:#76317A;fill-rule:nonzero}
    .fil1 {fill:#D22934;fill-rule:nonzero}
    .fil7 {fill:#ED9823;fill-rule:nonzero}
    .fil4 {fill:#F5BC2F;fill-rule:nonzero}
    .fil0 {fill:#F6CA53;fill-rule:nonzero}
    .fil2 {fill:url(#id0);fill-rule:nonzero}
    .fil8 {fill:url(#id1);fill-rule:nonzero}
    .fil9 {fill:url(#id2);fill-rule:nonzero}
    .fil3 {fill:url(#id3);fill-rule:nonzero}
   ]]>
  </style>
  <linearGradient id="id0" gradientUnits="userSpaceOnUse" x1="3378.93" y1="2756.93" x2="3665.76" y2="-52.61">
   <stop offset="0" style="stop-opacity:1; stop-color:#E33D49"/>
   <stop offset="1" style="stop-opacity:1; stop-color:#E76D72"/>
  </linearGradient>
  <linearGradient id="id1" gradientUnits="userSpaceOnUse" x1="5440.61" y1="2377.84" x2="6167.59" y2="-255.51">
   <stop offset="0" style="stop-opacity:1; stop-color:#E4312F"/>
   <stop offset="1" style="stop-opacity:1; stop-color:#E55B5F"/>
  </linearGradient>
  <linearGradient id="id2" gradientUnits="userSpaceOnUse" x1="4677.3" y1="6026.55" x2="6094.89" y2="9761.51">
   <stop offset="0" style="stop-opacity:1; stop-color:#3D89BE"/>
   <stop offset="1" style="stop-opacity:1; stop-color:#68ACD8"/>
  </linearGradient>
  <linearGradient id="id3" gradientUnits="userSpaceOnUse" x1="2787.09" y1="3790.75" x2="316.09" y2="5946.15">
   <stop offset="0" style="stop-opacity:1; stop-color:#691635"/>
   <stop offset="1" style="stop-opacity:1; stop-color:#65246C"/>
  </linearGradient>
 </defs>
 <g id="Camada_x0020_1">
  <metadata id="CorelCorpID_0Corel-Layer"/>
  <g id="_2920721659728">
   <path class="fil0" d="M4837.69 3.95l2492.49 -0.55 -2.07 224.86 12.21 1112.48c7.35,310.96 19.56,624.06 -11.4,934.16 -82.26,823.11 -463.08,1647.97 -1031.4,2247.94 -223.55,236.01 -464.06,449.19 -740.34,621.45 -127.01,79.16 -292.39,153.1 -406.67,246.65l107.77 198.87 86.26 156.72c-112.03,76.99 -234.56,118.11 -360.94,165.44l-48.21 31.98c-383.66,118.57 -781.31,185.81 -1182.6,200.03 -199.05,6.69 -576.34,-36.53 -742.02,12.04 -89.6,-120.36 -176.77,-297.48 -220.23,-440.8 -119.04,-31.27 -268.62,-15.52 -392.1,-14.18l-10.5 13.52c-789.28,5.06 -1578.58,4.15 -2367.86,-2.72 -0.97,-160.91 0.69,-321.84 4.95,-482.67 -41.92,-891.53 -67.82,-1849.92 236.16,-2698.92 339.49,-948.12 1082.93,-1717.98 1987.18,-2145.55 691.45,-446.61 1798.99,-382.06 2589.32,-380.75zm-2327.72 3303.5l337.09 -13.45c482.03,0.07 930.27,55.94 1387.72,-126.6 199.12,-101.57 335.49,-224.89 462.82,-408.31 55.98,-133.88 103.42,-268.33 142.27,-408.12l-6.07 -9.45c-699.82,-6.55 -1497.12,-127.85 -2040.21,418.63 -14.29,14.36 -27.77,29.51 -41.37,44.53 -76.37,105.04 -253.85,354.54 -245.79,485.32 0.37,5.92 2.32,11.64 3.53,17.44z"/>
   <path class="fil1" d="M2248.37 384.7c691.45,-446.61 1798.99,-382.06 2589.32,-380.75 29.74,771.61 23.19,1565.49 -3.89,2337.58 -699.82,-6.55 -1497.12,-127.85 -2040.21,418.63 -14.29,14.36 -27.77,29.51 -41.37,44.53 -76.37,105.04 -253.85,354.54 -245.79,485.32 0.37,5.92 2.32,11.64 3.53,17.44l-19.01 18.29c-170.8,684.55 -68.42,1647.42 -92.51,2375.3l-10.5 13.52c-789.28,5.06 -1578.58,4.15 -2367.86,-2.72 -0.97,-160.91 0.69,-321.84 4.95,-482.67 -41.92,-891.53 -67.82,-1849.92 236.16,-2698.92 339.49,-948.12 1082.93,-1717.98 1987.18,-2145.55z"/>
   <path class="fil2" d="M2248.37 384.7c691.45,-446.61 1798.99,-382.06 2589.32,-380.75 29.74,771.61 23.19,1565.49 -3.89,2337.58 -699.82,-6.55 -1497.12,-127.85 -2040.21,418.63 -14.29,14.36 -27.77,29.51 -41.37,44.53 -81.63,-170.59 -177.48,-334.52 -254.47,-507.32 -291.77,-654.64 -298.61,-1215.21 -249.39,-1912.66z"/>
   <path class="fil3" d="M25.04 5229.17c86.55,-103.31 129.95,-318.42 186.31,-446.36 209.78,-476.31 653.88,-879.21 1099.18,-1133.17 270.96,-154.53 870.41,-407.87 1180.43,-323.9 -170.8,684.55 -68.42,1647.42 -92.51,2375.3l-10.5 13.52c-789.28,5.06 -1578.58,4.15 -2367.86,-2.72 -0.97,-160.91 0.69,-321.84 4.95,-482.67z"/>
   <path class="fil4" d="M2847.06 3294c482.03,0.07 930.27,55.94 1387.72,-126.6 -81.32,653.26 29.62,1166.72 345.96,1745.7 103.49,189.38 228.05,376.06 305.46,577.66 89.42,-26.61 177.24,-66.01 264.3,-99.82l107.77 198.87 86.26 156.72c-112.03,76.99 -234.56,118.11 -360.94,165.44l-48.21 31.98c-383.66,118.57 -781.31,185.81 -1182.6,200.03 -199.05,6.69 -576.34,-36.53 -742.02,12.04 -89.6,-120.36 -176.77,-297.48 -220.23,-440.8 -119.04,-31.27 -268.62,-15.52 -392.1,-14.18 24.1,-727.88 -78.29,-1690.75 92.51,-2375.3l19.01 -18.29 337.09 -13.45z"/>
   <path class="fil5" d="M5150.51 5390.95l107.77 198.87 86.26 156.72c-112.03,76.99 -234.56,118.11 -360.94,165.44l-48.21 31.98c-383.66,118.57 -781.31,185.81 -1182.6,200.03 -199.05,6.69 -576.34,-36.53 -742.02,12.04 -89.6,-120.36 -176.77,-297.48 -220.23,-440.8l216.81 -0.81c650.46,12.14 1257.09,-6.39 1878.85,-223.64 89.42,-26.61 177.24,-66.01 264.3,-99.82z"/>
   <path class="fil6" d="M5258.28 5589.82l86.26 156.72c-112.03,76.99 -234.56,118.11 -360.94,165.44 62.7,-139.05 164.25,-221.07 274.68,-322.16z"/>
   <path class="fil7" d="M2509.97 3307.45l337.09 -13.45c-13.05,301.26 -73.85,2311.08 3.13,2400.13 52.37,7.97 104.42,15.24 157.16,20.28l-216.81 0.81c-119.04,-31.27 -268.62,-15.52 -392.1,-14.18 24.1,-727.88 -78.29,-1690.75 92.51,-2375.3l19.01 -18.29z"/>
   <path class="fil8" d="M4837.69 3.95l2492.49 -0.55 -2.07 224.86 12.21 1112.48c-8.46,6.03 -17.08,11.84 -25.4,18.11 -131.47,98.24 -241.61,331.57 -366.5,458.67 -564.9,574.89 -1427.99,1007.41 -2250.81,941.58 55.98,-133.88 103.42,-268.33 142.27,-408.12l-6.07 -9.45c27.08,-772.09 33.63,-1565.97 3.89,-2337.58z"/>
   <path class="fil4" d="M7328.12 228.26l12.2 1112.49c-8.48,6 -17.08,11.82 -25.42,18.08 -68.32,107.73 -241.59,331.58 -366.49,458.7 -564.9,574.89 -1438.07,1021.76 -2260.91,955.96 55.97,-133.89 113.53,-282.73 152.37,-422.53 311.32,-30.46 603.4,-81.85 892.52,-206.53 620.67,-271.16 1118.88,-762.72 1398.26,-1379.72 79.28,-174.22 126.24,-359.44 197.47,-536.46z"/>
   <path class="fil9" d="M5344.54 5746.54c676.45,1222.55 1346.23,2448.78 2009.38,3678.59 -850.08,-2.07 -1702.5,16.28 -2552.21,1.88 -169.31,-275.52 -444.51,-760.41 -569.33,-1049.05 -165.6,-256.99 -300.74,-542.1 -448.36,-810.35 -263.32,-467.48 -521.06,-938.05 -773.25,-1411.6 165.68,-48.56 542.97,-5.35 742.02,-12.04 401.29,-14.22 798.94,-81.45 1182.6,-200.03l48.21 -31.98c126.38,-47.33 248.91,-88.45 360.94,-165.44z"/>
   <path class="fil6" d="M3010.78 6156.02c165.68,-48.56 542.97,-5.35 742.02,-12.04 401.29,-14.22 798.94,-81.45 1182.6,-200.03 -390.23,518.37 -612.8,1123.03 -668.52,1769.62 -19.01,220.65 -13.81,444.66 -34.49,664.38 -165.6,-256.99 -300.74,-542.1 -448.36,-810.35 -263.32,-467.48 -521.06,-938.05 -773.25,-1411.6z"/>
   <path class="fil10" d="M20.09 5711.84c789.28,6.87 1578.58,7.78 2367.86,2.72 -9.38,763.79 74.92,1365.46 -244.7,2087.89 -109.56,247.64 -245.43,475.27 -419.57,682.92 -438.61,522.91 -1026.77,884.25 -1712.48,944.67 39.55,-1235.66 9.89,-2481.44 8.9,-3718.2z"/>
  </g>
 </g>
</svg>
